<?xml version="1.0" encoding="utf-8"?>
<!-- Generator: Adobe Illustrator 26.5.1, SVG Export Plug-In . SVG Version: 6.00 Build 0)  -->
<svg version="1.1" id="Layer_1" xmlns="http://www.w3.org/2000/svg" xmlns:xlink="http://www.w3.org/1999/xlink" x="0px" y="0px"
	 viewBox="0 0 363.5 147.4" style="enable-background:new 0 0 363.5 147.4;" xml:space="preserve">
<style type="text/css">
	.st0{fill:#41273B;}
	.st1{fill:url(#SVGID_1_);}
	.st2{fill:url(#SVGID_00000150790388222788337810000003317578276551177349_);}
	.st3{fill:#FFFFFF;}
	.st4{fill:#41273B;stroke:#41273B;stroke-width:0.75;stroke-miterlimit:10;}
</style>
<path class="st0" d="M242.9,49.2l5.4,5.4c-3.5,2.5-6.1,3.4-9.5,3.4c-1.5,0-2.8-0.2-3.8-0.7c2.3,2.8,3.4,6,3.4,9.6
	c0,6.3-3.2,12.2-8.4,15.5c-2.8,1.8-6.4,2.5-10.5,2.5c-7.6,2.7-10.2,4.6-10.2,6.6c0,1.7,1.7,2.7,4.5,2.7h9c6.6,0,10.2,0.8,13.6,3.2
	c4.4,3.1,6.2,7,6.2,11.9c0,12.2-8.7,17.7-22.4,17.7c-17.6,0-24.4-6.3-24.4-14.3c0-2,0.3-3.7,1.1-6l9.3-0.8c-0.8,1.2-1.6,3.3-1.6,5.1
	c0,2.9,1.2,5.3,3.3,6.6c2.7,1.6,6.9,2.6,11.4,2.6c8.7,0,13.7-2.8,13.7-9.8c0-3.1-1-5.4-3.1-6.8c-2.1-1.5-5.5-2-11.1-2
	c-2.3,0-6.9,0.1-8.7,0.1c-6.7,0-10.6-3.1-10.6-8.1c0-4.5,2.5-7.2,10.2-9.6c-7.6-2.4-12.7-8.8-12.7-16.3c0-11.3,8.5-19,20.8-19
	c8.6,0,10.3,3.2,17.2,3.2C238.1,51.7,240.3,51,242.9,49.2L242.9,49.2z M217.7,56c-7,0-10.6,3.6-10.6,11.4c0,7.2,3.7,11,10.9,11
	s10.2-3.7,10.2-11.3S225.2,56,217.7,56L217.7,56z"/>
<path class="st0" d="M288,94.6l3.4,5.7c-5,4.5-11.8,7-19,7c-15.6,0-25-11.3-25-29.9c0-9.5,2-15.6,6.8-21.2
	c4.5-5.3,10.1-7.8,16.8-7.8c6.1,0,11.4,2.2,15.3,6.1c4.9,5,6.2,10.3,6.4,23.7v1.2h-35.1v1.4c0,5.3,0.7,9.4,2.6,12.3
	c3.2,4.9,8.4,6.9,14,6.9S284.1,98.2,288,94.6L288,94.6z M257.6,72.6h25.8c-0.1-6.1-0.9-9.8-2.6-12.5c-1.9-3-5.9-5-10.2-5
	C262.6,55.1,258.1,61,257.6,72.6L257.6,72.6z"/>
<path class="st0" d="M296.1,50.3l8.8-1.9c0,0,2,4.2,2,8.8c5.9-5.9,11.8-8.7,17.7-8.7s11.5,3.3,13.8,8.2c0.9,2,1.4,4.3,1.4,6.6V106
	h-8.9V67.9c0-6-0.5-7.5-2-9.4c-1.2-1.5-3.6-2.4-6.2-2.4c-4.5,0-11.5,3.6-15.6,7.9V106h-8.6V62.6C298.4,54.5,296.1,50.3,296.1,50.3
	L296.1,50.3z"/>
<path class="st0" d="M260.6,135.7v-7.7c0-0.7-0.1-1.2-0.4-1.4c-0.2-0.2-0.6-0.4-1.1-0.4c-0.4,0-0.9,0.1-1.4,0.4
	c-0.5,0.2-0.9,0.6-1.4,1v8.2H254v-13.5c0-0.5,0-1-0.1-1.4s-0.1-0.8-0.2-1.1l2.5-0.5c0.1,0.3,0.1,0.7,0.2,1.2s0.1,0.9,0.1,1.5v2.4
	c0,0.3,0,0.6,0,0.8c0,0.2,0,0.4,0,0.4c1.1-1,2.2-1.5,3.5-1.5c0.7,0,1.2,0.1,1.7,0.4s0.8,0.6,1,1c0.1,0.3,0.2,0.6,0.3,0.9
	s0.1,0.8,0.1,1.3v8L260.6,135.7L260.6,135.7z"/>
<path class="st0" d="M269.1,130.7v0.2c0,0.4,0,0.8,0.1,1.2s0.2,0.7,0.5,1s0.5,0.6,0.9,0.7c0.4,0.2,0.8,0.3,1.4,0.3
	c1,0,2-0.4,2.8-1.1l1,1.5c-1.2,1-2.5,1.5-4.1,1.5c-0.8,0-1.5-0.1-2.2-0.4c-0.6-0.3-1.2-0.7-1.6-1.2s-0.8-1.1-1-1.9
	c-0.2-0.7-0.4-1.6-0.4-2.5c0-1,0.1-1.9,0.3-2.6c0.2-0.7,0.6-1.3,1.1-1.9c0.5-0.5,1-0.9,1.5-1.2c0.6-0.2,1.2-0.4,1.9-0.4
	c0.6,0,1.1,0.1,1.6,0.3c0.5,0.2,1,0.5,1.5,0.9c0.5,0.4,0.9,1.1,1.1,1.8s0.4,1.8,0.4,3.1v0.5L269.1,130.7L269.1,130.7z M273.3,128.8
	c0-0.9-0.2-1.7-0.5-2.2s-0.9-0.8-1.5-0.8c-0.7,0-1.2,0.3-1.6,0.8s-0.5,1.2-0.5,2.2H273.3L273.3,128.8z"/>
<path class="st0" d="M287.5,136.1c-0.3-0.1-0.6-0.3-0.9-0.6c-0.3-0.3-0.5-0.6-0.6-0.9c-0.5,0.5-1,0.9-1.5,1.1s-1.1,0.3-1.7,0.3
	c-1.3,0-2.3-0.3-2.9-1s-0.9-1.5-0.9-2.4c0-1.3,0.5-2.3,1.4-3s2.4-1,4.2-1h0.8V128c0-0.7-0.1-1.2-0.3-1.5c-0.2-0.3-0.6-0.5-1.3-0.5
	c-0.4,0-0.7,0.1-1.1,0.2s-0.7,0.2-1,0.4s-0.6,0.3-0.8,0.4l-0.5,0.3l-1.1-1.8c0.9-0.5,1.7-0.9,2.4-1.2c0.8-0.2,1.6-0.4,2.4-0.4
	c1.8,0,3,0.6,3.5,1.9c0,0.1,0.1,0.2,0.1,0.4s0,0.3,0.1,0.5c0,0.2,0,0.5,0,0.8v1.1l0,3.3c0,0.4,0,0.7,0,1c0,0.3,0.1,0.5,0.1,0.7
	c0.1,0.2,0.2,0.4,0.3,0.5c0.1,0.1,0.3,0.3,0.5,0.4L287.5,136.1L287.5,136.1z M285.4,130.3c0,0-0.1,0-0.2,0s-0.2,0-0.3,0
	c-0.6,0-1.1,0.1-1.5,0.1s-0.7,0.2-1,0.4s-0.4,0.4-0.5,0.7s-0.2,0.6-0.2,0.9c0,0.5,0.1,1,0.4,1.3s0.7,0.5,1.2,0.5
	c0.4,0,0.8-0.1,1.1-0.3s0.7-0.5,0.9-0.9L285.4,130.3L285.4,130.3z"/>
<path class="st0" d="M296.2,135.6c-0.5,0.2-0.9,0.3-1.5,0.3c-0.6,0-1.1-0.1-1.5-0.4c-0.3-0.2-0.6-0.5-0.7-0.9
	c-0.2-0.3-0.2-0.7-0.3-1.1s0-0.7,0-0.9V123c0-0.4,0-0.7,0-1c0-0.3,0-0.6,0-0.8c0-0.2,0-0.5-0.1-0.7c0-0.2-0.1-0.5-0.1-0.7l2.5-0.6
	c0.1,0.3,0.1,0.8,0.2,1.3s0,1.1,0,1.9v9.6c0,0.4,0,0.7,0,0.9c0,0.2,0,0.4,0,0.6c0,0.1,0,0.2,0.1,0.3c0,0.1,0.1,0.1,0.1,0.2
	c0.1,0.1,0.2,0.2,0.4,0.2c0.2,0,0.3,0,0.5,0L296.2,135.6L296.2,135.6z"/>
<path class="st0" d="M305.5,135.5c-0.7,0.3-1.5,0.5-2.2,0.5c-0.5,0-1-0.1-1.4-0.2c-0.4-0.1-0.7-0.4-0.9-0.6s-0.4-0.6-0.5-0.9
	c-0.1-0.4-0.2-0.7-0.2-1.1v-7H299v-1.7h1.3c0-0.5,0-1,0-1.4c0-0.5,0-1,0.1-1.4l2.5-0.6c-0.1,0.5-0.1,1-0.1,1.6
	c0,0.6-0.1,1.2-0.1,1.8h2.7l-0.6,1.7h-2.1v6.4c0,0.7,0.1,1.2,0.3,1.4c0.2,0.2,0.6,0.4,1.1,0.4c0.3,0,0.6-0.1,1.1-0.2L305.5,135.5
	L305.5,135.5z"/>
<path class="st0" d="M315.8,135.7v-7.7c0-0.7-0.1-1.2-0.4-1.4c-0.2-0.2-0.6-0.4-1.1-0.4c-0.4,0-0.9,0.1-1.4,0.4
	c-0.5,0.2-0.9,0.6-1.4,1v8.2h-2.5v-13.5c0-0.5,0-1-0.1-1.4s-0.1-0.8-0.2-1.1l2.5-0.5c0.1,0.3,0.1,0.7,0.2,1.2s0.1,0.9,0.1,1.5v2.4
	c0,0.3,0,0.6,0,0.8c0,0.2,0,0.4,0,0.4c1.1-1,2.2-1.5,3.5-1.5c0.7,0,1.2,0.1,1.7,0.4s0.8,0.6,1,1c0.1,0.3,0.2,0.6,0.3,0.9
	s0.1,0.8,0.1,1.3v8L315.8,135.7L315.8,135.7z"/>
<path class="st0" d="M330,134.5c-0.5,0.5-1.1,0.9-1.6,1.1s-1.2,0.4-2,0.4c-1.6,0-2.8-0.5-3.6-1.5s-1.2-2.5-1.2-4.3
	c0-1,0.1-1.9,0.4-2.7c0.3-0.8,0.7-1.4,1.1-1.9s1-0.9,1.6-1.1c0.6-0.2,1.2-0.4,1.9-0.4s1.2,0.1,1.7,0.3c0.5,0.2,1,0.5,1.5,1l-1.2,1.6
	c-0.6-0.6-1.3-0.9-1.9-0.9c-0.8,0-1.4,0.4-1.8,1.2c-0.2,0.3-0.3,0.8-0.4,1.3s-0.1,1.1-0.1,1.9c0,1.5,0.2,2.5,0.8,3.1
	c0.4,0.4,0.9,0.6,1.5,0.6c0.8,0,1.5-0.4,2.3-1.1L330,134.5L330,134.5z"/>
<path class="st0" d="M341.2,136.1c-0.3-0.1-0.6-0.3-0.9-0.6c-0.3-0.3-0.5-0.6-0.6-0.9c-0.5,0.5-1,0.9-1.5,1.1s-1.1,0.3-1.7,0.3
	c-1.3,0-2.3-0.3-2.9-1s-0.9-1.5-0.9-2.4c0-1.3,0.5-2.3,1.4-3s2.4-1,4.2-1h0.8V128c0-0.7-0.1-1.2-0.3-1.5c-0.2-0.3-0.6-0.5-1.3-0.5
	c-0.4,0-0.7,0.1-1.1,0.2s-0.7,0.2-1,0.4s-0.6,0.3-0.8,0.4l-0.5,0.3l-1.1-1.8c0.9-0.5,1.7-0.9,2.4-1.2c0.8-0.2,1.6-0.4,2.4-0.4
	c1.8,0,3,0.6,3.5,1.9c0,0.1,0.1,0.2,0.1,0.4s0,0.3,0.1,0.5c0,0.2,0,0.5,0,0.8v1.1l0,3.3c0,0.4,0,0.7,0,1c0,0.3,0.1,0.5,0.1,0.7
	c0.1,0.2,0.2,0.4,0.3,0.5c0.1,0.1,0.3,0.3,0.5,0.4L341.2,136.1L341.2,136.1z M339.1,130.3c0,0-0.1,0-0.2,0c-0.1,0-0.2,0-0.3,0
	c-0.6,0-1.1,0.1-1.5,0.1s-0.7,0.2-1,0.4s-0.4,0.4-0.5,0.7s-0.2,0.6-0.2,0.9c0,0.5,0.1,1,0.4,1.3s0.7,0.5,1.2,0.5
	c0.4,0,0.8-0.1,1.1-0.3s0.7-0.5,0.9-0.9L339.1,130.3L339.1,130.3z"/>
<path class="st0" d="M351.3,126.5c-0.1,0-0.2-0.1-0.3-0.1s-0.2,0-0.4,0c-0.5,0-1,0.2-1.4,0.5c-0.4,0.3-0.6,0.7-0.8,1.2v7.7H346v-8
	c0-0.7,0-1.3-0.1-1.8c-0.1-0.5-0.2-1-0.3-1.3l2.3-0.5c0.3,0.5,0.4,1.1,0.4,1.8c0.5-0.6,0.9-1.1,1.4-1.4s1-0.4,1.5-0.4
	c0.3,0,0.6,0.1,0.9,0.2L351.3,126.5L351.3,126.5z"/>
<path class="st0" d="M356.7,130.7v0.2c0,0.4,0,0.8,0.1,1.2s0.2,0.7,0.5,1s0.5,0.6,0.9,0.7c0.4,0.2,0.8,0.3,1.4,0.3
	c1,0,2-0.4,2.8-1.1l1,1.5c-1.2,1-2.5,1.5-4.1,1.5c-0.8,0-1.5-0.1-2.2-0.4c-0.6-0.3-1.2-0.7-1.6-1.2s-0.8-1.1-1-1.9
	c-0.2-0.7-0.4-1.6-0.4-2.5c0-1,0.1-1.9,0.3-2.6c0.2-0.7,0.6-1.3,1.1-1.9c0.5-0.5,1-0.9,1.5-1.2c0.6-0.2,1.2-0.4,1.9-0.4
	c0.6,0,1.1,0.1,1.6,0.3c0.5,0.2,1,0.5,1.5,0.9c0.5,0.4,0.9,1.1,1.1,1.8s0.4,1.8,0.4,3.1v0.5L356.7,130.7L356.7,130.7z M360.9,128.8
	c0-0.9-0.2-1.7-0.5-2.2s-0.9-0.8-1.5-0.8c-0.7,0-1.2,0.3-1.6,0.8s-0.5,1.2-0.5,2.2H360.9L360.9,128.8z"/>
<g>
	
		<linearGradient id="SVGID_1_" gradientUnits="userSpaceOnUse" x1="0" y1="76.28" x2="190.27" y2="76.28" gradientTransform="matrix(1 0 0 -1 0 150)">
		<stop  offset="0" style="stop-color:#DC6B2F"/>
		<stop  offset="0.39" style="stop-color:#C45433"/>
		<stop  offset="1" style="stop-color:#A4343A"/>
	</linearGradient>
	<path class="st1" d="M51,0L0,51.6v95.9h139.2l37.2-37.7c-0.1,0-0.3,0-0.4,0c-2.9,0-5.2-0.6-7.4-1.6c-4-1.9-5.4-5.5-5.4-11.2V58.3
		h-10.4l4.3-6.7h6.1c0-5.4,0.9-14.2,0.9-14.2l9.3-2c0,0-1.1,8.8-1.1,16.3h14.1v6.7H172v36.3c0,6.2,1.7,8.4,7.2,8.4
		c2,0,3.4-0.2,4.6-0.7l6.4-6.5V0H51z M54.1,107.9h-8.9V69.8c0-6-0.5-7.5-2-9.4c-1.2-1.5-3.6-2.4-6.2-2.4c-4.5,0-11.5,3.6-15.6,7.9
		v41.9h-8.6V64.5c0-8-2.4-12.3-2.4-12.3l8.8-1.9c0,0,2,4.2,2,8.8c5.9-5.9,11.8-8.7,17.7-8.7s11.5,3.3,13.8,8.2
		c0.9,2,1.4,4.3,1.4,6.6L54.1,107.9L54.1,107.9z M104.6,81.2H69.5v1.4c0,5.3,0.7,9.4,2.6,12.3c3.2,4.9,8.4,6.9,14,6.9
		s9.8-1.7,13.8-5.3l3.4,5.7c-5,4.5-11.8,7-19,7c-15.6,0-25-11.3-25-29.9c0-9.5,2-15.6,6.8-21.2c4.5-5.3,10.1-7.8,16.8-7.8
		c6.1,0,11.4,2.2,15.3,6.1c4.9,5,6.2,10.3,6.4,23.7L104.6,81.2L104.6,81.2z M156.6,107.9h-10.7l-15.3-24l-15.3,24h-10.4l21-31.2
		l-17.4-25.1h10.8l11.2,18.8l10.9-18.8h10.3L135,76.7L156.6,107.9L156.6,107.9z"/>
	
		<linearGradient id="SVGID_00000028324097258246691090000017474825849204876211_" gradientUnits="userSpaceOnUse" x1="3.86" y1="84.2" x2="190.28" y2="84.2" gradientTransform="matrix(1 0 0 -1 0 150)">
		<stop  offset="0" style="stop-color:#DC6B2F"/>
		<stop  offset="0.39" style="stop-color:#C45433"/>
		<stop  offset="1" style="stop-color:#A4343A"/>
	</linearGradient>
	<path style="fill:url(#SVGID_00000028324097258246691090000017474825849204876211_);" d="M82.5,57c-8,0-12.6,5.9-13,17.5h25.8
		c-0.1-6.1-0.9-9.8-2.6-12.5C90.7,59,86.8,57,82.5,57z"/>
</g>
<path class="st3" d="M39,50.4c-6,0-11.9,2.8-17.7,8.7c0-4.6-2-8.8-2-8.8l-8.8,1.9c0,0,2.4,4.3,2.4,12.3v43.4h8.6V66
	C25.4,61.7,32.4,58,37,58c2.6,0,5,0.9,6.2,2.4c1.6,1.9,2,3.4,2,9.4v38.1h8.9V65.2c0-2.3-0.5-4.5-1.4-6.6
	C50.5,53.6,45.1,50.4,39,50.4L39,50.4z"/>
<path class="st3" d="M82.9,50.2c-6.8,0-12.3,2.5-16.8,7.8c-4.8,5.7-6.8,11.7-6.8,21.2c0,18.7,9.4,29.9,25,29.9c7.2,0,14-2.5,19-7
	l-3.4-5.7c-4,3.6-8.4,5.3-13.8,5.3s-10.8-2-14-6.9c-1.9-2.9-2.6-7-2.6-12.3v-1.4h35.2V80c-0.2-13.4-1.6-18.8-6.4-23.7
	C94.4,52.3,89.1,50.2,82.9,50.2L82.9,50.2z M69.5,74.6c0.4-11.6,5-17.5,13-17.5c4.3,0,8.2,1.9,10.2,5c1.7,2.7,2.5,6.4,2.6,12.5H69.5
	z"/>
<polygon class="st3" points="151.8,51.6 141.5,51.6 130.6,70.4 119.4,51.6 108.6,51.6 126,76.7 105,107.9 115.4,107.9 130.6,83.9 
	145.9,107.9 156.6,107.9 135,76.7 "/>
<path class="st3" d="M172,94.6V58.3h14.5v-6.7h-14.1c0-7.5,1.1-16.3,1.1-16.3l-9.3,2c0,0-0.9,8.8-0.9,14.2h-6.1l-4.3,6.7h10.4v38.7
	c0,5.7,1.5,9.3,5.4,11.2c2.1,1,4.4,1.6,7.4,1.6c0.1,0,0.3,0,0.4,0l7.4-7.5c-1.3,0.5-2.6,0.7-4.6,0.7C173.7,102.9,172,100.8,172,94.6
	L172,94.6z"/>
<g>
	<path class="st4" d="M357.6,97.4c-0.3-0.8-0.8-1.4-1.3-1.9c-0.6-0.5-1.2-1-2-1.3c-0.7-0.3-1.5-0.5-2.4-0.5s-1.6,0.2-2.4,0.5
		c-0.7,0.3-1.4,0.7-2,1.3c-0.6,0.6-1,1.2-1.3,1.9c-0.3,0.7-0.5,1.6-0.5,2.4s0.2,1.7,0.5,2.4c0.3,0.8,0.8,1.4,1.3,2
		c0.6,0.5,1.2,1,2,1.3c0.7,0.3,1.5,0.5,2.4,0.5s1.6-0.2,2.4-0.5c0.7-0.3,1.4-0.7,2-1.3c0.6-0.6,1-1.2,1.3-2c0.3-0.8,0.5-1.6,0.5-2.4
		S358,98.2,357.6,97.4z M356.9,102.1c-0.3,0.7-0.7,1.3-1.2,1.7c-0.5,0.5-1,0.9-1.7,1.2c-0.7,0.3-1.3,0.4-2.1,0.4
		c-0.7,0-1.4-0.1-2.1-0.4c-0.7-0.3-1.2-0.7-1.7-1.2c-0.5-0.5-0.9-1.1-1.1-1.7c-0.3-0.7-0.4-1.4-0.4-2.2s0.1-1.5,0.4-2.2
		c0.3-0.7,0.7-1.3,1.1-1.7c0.5-0.5,1-0.9,1.7-1.2c0.7-0.3,1.4-0.4,2.1-0.4c0.7,0,1.4,0.1,2.1,0.4c0.7,0.3,1.2,0.7,1.7,1.2
		c0.5,0.5,0.9,1.1,1.2,1.7c0.3,0.7,0.4,1.4,0.4,2.2S357.2,101.4,356.9,102.1z"/>
	<path class="st4" d="M353.4,101.6c-0.1-0.2-0.2-0.3-0.3-0.5c-0.1-0.1-0.2-0.3-0.3-0.4c-0.1-0.1-0.2-0.2-0.3-0.3
		c-0.1-0.1-0.2-0.2-0.4-0.3c0.5,0,0.9-0.2,1.2-0.5c0.3-0.3,0.4-0.7,0.4-1.2c0-0.3-0.1-0.6-0.2-0.8c-0.1-0.2-0.2-0.4-0.4-0.5
		c-0.2-0.1-0.3-0.2-0.6-0.3c-0.2-0.1-0.5-0.1-0.9-0.1h-1.4v6h0.6v-2.7h0.2c0.1,0,0.2,0,0.3,0.1c0.1,0.1,0.2,0.1,0.3,0.2
		c0.2,0.2,0.4,0.5,0.5,0.7c0.1,0.2,0.3,0.5,0.5,0.9c0.1,0.2,0.2,0.4,0.3,0.5c0.1,0.1,0.1,0.3,0.2,0.4h0.7L353.4,101.6L353.4,101.6z
		 M351.8,99.7h-0.7v-2.4h0.7c0.2,0,0.4,0,0.6,0c0.2,0,0.3,0.1,0.4,0.2c0.1,0.1,0.3,0.2,0.4,0.4c0.1,0.2,0.2,0.4,0.2,0.6
		c0,0.4-0.1,0.7-0.4,0.9C352.7,99.6,352.3,99.7,351.8,99.7L351.8,99.7z"/>
</g>
</svg>
